<svg width="56" height="55" viewBox="0 0 56 55" fill="none" xmlns="http://www.w3.org/2000/svg">
<path fill-rule="evenodd" clip-rule="evenodd" d="M27.5132 0C42.701 0 55.0132 12.3122 55.0132 27.5C55.0132 42.6878 42.701 55 27.5132 55C12.3254 55 0.0131836 42.6878 0.0131836 27.5C0.0131836 12.3122 12.3254 0 27.5132 0ZM27.5132 15C26.1325 15 25.0132 16.1193 25.0132 17.5V25H17.5132C16.1325 25 15.0132 26.1193 15.0132 27.5C15.0132 28.8807 16.1325 30 17.5132 30H25.0132V37.5C25.0132 38.8807 26.1325 40 27.5132 40C28.8939 40 30.0132 38.8807 30.0132 37.5V30H37.5132C38.8939 30 40.0132 28.8807 40.0132 27.5C40.0132 26.1193 38.8939 25 37.5132 25H30.0132V17.5C30.0132 16.1193 28.8939 15 27.5132 15Z" fill="#E6E6E6"/>
</svg>
